<?xml version="1.0" encoding="UTF-8"?>
<svg id="Layer_1" xmlns="http://www.w3.org/2000/svg" version="1.1" viewBox="0 0 300 250">
  <!-- Generator: Adobe Illustrator 29.3.1, SVG Export Plug-In . SVG Version: 2.1.0 Build 151)  -->
  <defs>
    <style>
      .st0 {
        fill: #aac93c;
      }

      .st1 {
        fill: #ffa635;
      }

      .st2 {
        fill: #ffc629;
      }
    </style>
  </defs>
  <g>
    <path class="st0" d="M110.25,114.48c.54-5.31,2.18-10.48,4.8-15.13,5.28-9.38,14.26-16.27,24.24-20.02,29.64-11.15,58.58,7.93,66.93,37.01,6.98,24.3-6.28,49.92-28.16,61.36-12.81,6.69-27.67,8.26-41.81,5.79,44.5,7.75,82.04-44.94,52.34-82.26-26.92-33.84-76.6-9.5-76.6,30.29,0-5.72-2.34-11.05-1.73-17.05Z"/>
    <path class="st1" d="M99.8,90.92c-22.44,36.43,12.07,88.99,57.11,77.16,41.19-10.82,37.13-64.23.43-79.57,5.28,2.21,11.06,2.18,16.37,5.04,4.71,2.53,8.86,5.97,12.18,10.09,6.69,8.29,9.73,18.91,9.49,29.21-.7,30.57-29.02,48.87-58.95,45.05-25-3.18-43.74-24.82-46.18-48.62-1.4-13.56,2.41-26.96,9.54-38.35Z"/>
    <path class="st2" d="M109.32,86.24c14.82-20.39,42.79-26.41,64.84-17.11,12.62,5.32,22.58,15.18,29.14,26.98-21.05-37.39-83.91-32.45-95.22,12.81-10.31,41.32,38.47,63.44,69.57,38.63-4.47,3.56-7.23,8.65-12.29,11.93-4.48,2.91-9.49,4.9-14.7,5.83-10.49,1.88-21.26-.56-30.17-5.72-26.47-15.3-28.9-48.94-11.16-73.34Z"/>
  </g>
  <path class="st2" d="M213.41,125.6c0-.48,0-.97-.01-1.45,24.22,1.29,39.41,1.93,45.57,1.93l1.24,2.44c-.36,10.12-1.57,15.18-3.6,15.18-17.28-1.24-32.05-3.25-44.35-6.02.75-3.91,1.15-7.95,1.15-12.09Z"/>
  <path class="st2" d="M211.12,108.62c23.21-6.25,38.38-9.37,45.5-9.37,1.57,3.43,2.35,8.49,2.35,15.18v2.3l-45.66,5.17c-.26-4.57-1.01-9.02-2.19-13.29Z"/>
  <path class="st2" d="M207.07,153.32c1.93-3.98,3.46-8.18,4.53-12.57,13.06,3.01,27.65,7.52,43.77,13.53v1.22c-2.4,10.12-5.17,15.18-8.31,15.18-11.93-4.61-25.26-10.39-39.99-17.36Z"/>
  <path class="st2" d="M204.51,93.16c13.74-7.44,27.92-14.04,42.55-19.79,3.97,8.04,5.95,13.15,5.95,15.31-19.79,8.51-34.07,14.12-42.85,16.82-1.44-4.34-3.35-8.47-5.65-12.34Z"/>
  <path class="st2" d="M198.19,166.87c2.89-3.38,5.44-7.08,7.58-11.03,21.68,12.81,34.25,21.28,37.69,25.4v1.22c-5.44,7.77-8.63,11.65-9.55,11.65-9.01-5.17-20.92-14.25-35.72-27.24Z"/>
  <path class="st2" d="M194.52,80.39c11.83-11.34,23.35-21.5,34.54-30.47,7.2,7.5,10.8,11.79,10.8,12.87-3.84,4.92-16.06,14.32-36.69,28.19-2.5-3.84-5.4-7.39-8.64-10.6Z"/>
  <path class="st0" d="M185.3,178.35c3.86-2.59,7.41-5.6,10.6-8.95,9.69,9.15,19.55,19.74,29.55,31.76v1.22c-4.06,5.24-8.03,8.76-11.91,10.57h-1.25c-5.59-5.55-14.59-17.08-27-34.6Z"/>
  <path class="st2" d="M192.19,78.21c14-15.87,23.52-27.65,28.56-35.33,0-1.18-4.02-4.29-12.05-9.35h-3.6l-23.51,37.01,10.6,7.68Z"/>
  <path class="st0" d="M170.37,185.77c4.49-1.53,8.75-3.54,12.71-5.98,13.11,24.26,19.67,37.63,19.67,40.08-8.22,3.97-13.43,5.96-15.65,5.96h-1.11l-15.63-40.06Z"/>
  <path class="st2" d="M165.34,63.95c8.67-28.05,13.94-42.08,15.82-42.08h1.24c9.6,2.53,14.4,4.88,14.4,7.05l-17.61,40.3c-4.35-2.27-8.99-4.05-13.85-5.27Z"/>
  <path class="st0" d="M153.1,189.07c4.99-.25,9.82-1.07,14.44-2.41,2.57,9.08,5.48,23.31,8.77,42.69-7.57,2.35-13.15,3.52-16.76,3.52-2.15-4.29-4.3-18.9-6.45-43.81Z"/>
  <path class="st1" d="M149.06,62.05c.79-29.95,2.3-44.93,4.54-44.93h2.36c8.86,0,13.29,1.17,13.29,3.52-1.84,17.69-3.93,31.94-6.26,42.76-4.23-.89-8.62-1.36-13.12-1.36-.27,0-.54,0-.81,0Z"/>
  <path class="st0" d="M129.65,230.44c2.81-19.84,5.05-34.08,6.72-42.72,4.35.94,8.86,1.44,13.49,1.44h.13c-.11,29.15-1.67,43.72-4.7,43.72h-2.49c-5.63,0-10.01-.81-13.15-2.44Z"/>
  <path class="st1" d="M124.94,19.43c7.94-1.54,13.11-2.3,15.51-2.3,3.35,17.5,5.29,32.5,5.81,45.03-4.67.26-9.2,1.03-13.54,2.24-5.18-15.32-7.78-30.31-7.78-44.96Z"/>
  <path class="st0" d="M103.34,223.39c.73-6.76,6.4-20.59,17-41.5,4.17,2.19,8.62,3.93,13.28,5.16-6.87,23.91-12.16,37.61-15.87,41.08-1.57,0-6.37-1.58-14.4-4.74Z"/>
  <path class="st1" d="M97.39,30c7.11-3.89,11.86-5.83,14.26-5.83s8.35,13.76,17.69,41.27c-4.23,1.44-8.27,3.33-12.05,5.59-13.27-23.4-19.9-37.07-19.9-41.02Z"/>
  <path class="st0" d="M79.39,206.99v-1.08c11.88-15.57,20.98-26.8,27.29-33.68,3.37,3.13,7.09,5.89,11.09,8.23-14.14,22.45-22.97,34.81-26.47,37.1l-11.91-10.57Z"/>
  <path class="st1" d="M73.44,47.62c6.92-7.05,11.68-10.57,14.26-10.57,11.33,13.72,20.43,25.52,27.32,35.4-3.89,2.56-7.48,5.52-10.71,8.84-11.38-11.4-21.67-22.63-30.86-33.68Z"/>
  <path class="st0" d="M60.14,188.29v-2.3c16.2-13.26,28.12-22.2,35.75-26.81,2.42,3.89,5.26,7.49,8.43,10.75-19.22,19.28-31.14,28.93-35.74,28.93l-8.45-10.57Z"/>
  <path class="st1" d="M55.44,68.76c5.81-8.67,9.41-13.01,10.8-13.01,10.79,7.17,22.78,16.45,35.97,27.81-2.94,3.33-5.54,6.97-7.73,10.88-11.24-6.42-24.25-14.98-39.03-25.68Z"/>
  <path class="st0" d="M45.88,161.32c16.98-7.51,31.44-13.02,43.38-16.52,1.39,4.41,3.26,8.61,5.54,12.55-25.84,12.77-39.75,19.16-41.72,19.16-2.4-3.07-4.8-8.13-7.2-15.18Z"/>
  <path class="st1" d="M43.39,94.51c3.51-10.21,6.33-15.31,8.45-15.31,20.08,7.55,33.84,13.46,41.3,17.74-2.07,4.07-3.7,8.39-4.85,12.9-8.61-2.08-23.58-7.18-44.89-15.33Z"/>
  <path class="st1" d="M39.79,134.35c2.22-1.42,17.74-3.53,46.57-6.33.17,4.73.87,9.33,2.03,13.75-10.14,3-25.14,5.99-45,8.99-2.4-4.52-3.6-9.98-3.6-16.4Z"/>
  <path class="st1" d="M39.79,121.47v-7.05c0-5.51.83-8.27,2.49-8.27,22.14,2,37.29,3.99,45.46,5.99-.93,4.34-1.43,8.84-1.43,13.45v.05c-22.11-1.25-37.2-1.88-45.27-1.88l-1.25-2.3Z"/>
</svg>