<?xml version="1.0" encoding="UTF-8"?>
<svg id="Layer_1" xmlns="http://www.w3.org/2000/svg" version="1.1" viewBox="0 0 300 250">
  <!-- Generator: Adobe Illustrator 29.3.1, SVG Export Plug-In . SVG Version: 2.1.0 Build 151)  -->
  <defs>
    <style>
      .st0 {
        fill: #aac93c;
      }

      .st1 {
        fill: #ffa635;
      }

      .st2 {
        fill: #ffa635;
      }

      .st3 {
        fill: #ffc629;
      }
    </style>
  </defs>
  <g>
    <g>
      <path class="st0" d="M49.41,119.06c.3-3,1.23-5.92,2.71-8.55,2.98-5.3,8.05-9.19,13.69-11.31,16.74-6.3,33.09,4.48,37.81,20.91,3.94,13.73-3.55,28.2-15.91,34.66-7.24,3.78-15.63,4.66-23.62,3.27,25.14,4.38,46.34-25.39,29.57-46.47-15.21-19.11-43.27-5.37-43.27,17.11,0-3.23-1.32-6.24-.98-9.63Z"/>
      <path class="st2" d="M43.51,105.75c-12.67,20.58,6.82,50.27,32.26,43.59,23.27-6.11,20.98-36.28.24-44.95,2.98,1.25,6.25,1.23,9.25,2.85,2.66,1.43,5,3.37,6.88,5.7,3.78,4.68,5.49,10.68,5.36,16.5-.39,17.27-16.39,27.61-33.3,25.45-14.12-1.8-24.71-14.02-26.09-27.47-.79-7.66,1.36-15.23,5.39-21.66Z"/>
      <path class="st3" d="M48.89,103.1c8.37-11.52,24.17-14.92,36.63-9.67,7.13,3.01,12.76,8.57,16.46,15.24-11.89-21.12-47.4-18.33-53.79,7.24-5.83,23.34,21.73,35.84,39.3,21.82-2.52,2.01-4.09,4.89-6.94,6.74-2.53,1.64-5.36,2.77-8.31,3.3-5.92,1.06-12.01-.32-17.04-3.23-14.95-8.64-16.32-27.65-6.31-41.43Z"/>
    </g>
    <path class="st3" d="M107.69,125.34c0-.27,0-.55,0-.82,13.68.73,22.26,1.09,25.74,1.09l.7,1.38c-.21,5.71-.89,8.57-2.03,8.57-9.76-.7-18.11-1.83-25.05-3.4.42-2.21.65-4.49.65-6.83Z"/>
    <path class="st3" d="M106.39,115.75c13.11-3.53,21.68-5.29,25.7-5.29.89,1.94,1.33,4.8,1.33,8.57v1.3l-25.79,2.92c-.15-2.58-.57-5.1-1.24-7.51Z"/>
    <path class="st3" d="M104.11,141c1.09-2.25,1.95-4.62,2.56-7.1,7.38,1.7,15.62,4.25,24.72,7.64v.69c-1.36,5.71-2.92,8.57-4.69,8.57-6.74-2.6-14.27-5.87-22.59-9.8Z"/>
    <path class="st3" d="M102.66,107.01c7.76-4.2,15.77-7.93,24.04-11.18,2.24,4.54,3.36,7.43,3.36,8.65-11.18,4.81-19.25,7.98-24.2,9.5-.81-2.45-1.89-4.79-3.19-6.97Z"/>
    <path class="st3" d="M99.09,148.65c1.63-1.91,3.07-4,4.28-6.23,12.25,7.24,19.35,12.02,21.29,14.35v.69c-3.08,4.39-4.87,6.58-5.4,6.58-5.09-2.92-11.82-8.05-20.18-15.39Z"/>
    <path class="st3" d="M97.02,99.8c6.68-6.41,13.19-12.14,19.51-17.21,4.07,4.24,6.1,6.66,6.1,7.27-2.17,2.78-9.07,8.09-20.73,15.93-1.41-2.17-3.05-4.17-4.88-5.99Z"/>
    <path class="st0" d="M91.81,155.14c2.18-1.46,4.19-3.16,5.99-5.06,5.48,5.17,11.04,11.15,16.69,17.94v.69c-2.29,2.96-4.54,4.95-6.73,5.97h-.71c-3.16-3.14-8.24-9.65-15.25-19.55Z"/>
    <path class="st3" d="M95.7,98.57c7.91-8.97,13.28-15.62,16.13-19.96,0-.66-2.27-2.43-6.81-5.28h-2.03l-13.28,20.9,5.99,4.34Z"/>
    <path class="st0" d="M83.38,159.33c2.53-.86,4.94-2,7.18-3.38,7.41,13.71,11.11,21.25,11.11,22.64-4.64,2.24-7.59,3.37-8.84,3.37h-.63l-8.83-22.63Z"/>
    <path class="st3" d="M80.53,90.51c4.9-15.85,7.87-23.77,8.93-23.77h.7c5.42,1.43,8.13,2.76,8.13,3.98l-9.95,22.76c-2.46-1.28-5.08-2.29-7.82-2.97Z"/>
    <path class="st0" d="M73.62,161.19c2.82-.14,5.55-.61,8.16-1.36,1.45,5.13,3.1,13.17,4.95,24.12-4.28,1.33-7.43,1.99-9.47,1.99-1.21-2.43-2.43-10.67-3.64-24.75Z"/>
    <path class="st2" d="M71.33,89.44c.45-16.92,1.3-25.38,2.57-25.38h1.33c5,0,7.51.66,7.51,1.99-1.04,9.99-2.22,18.04-3.54,24.16-2.39-.5-4.87-.77-7.41-.77-.15,0-.3,0-.46,0Z"/>
    <path class="st0" d="M60.37,184.56c1.59-11.21,2.85-19.25,3.8-24.13,2.46.53,5.01.81,7.62.81h.07c-.06,16.46-.94,24.7-2.65,24.7h-1.41c-3.18,0-5.66-.46-7.43-1.38Z"/>
    <path class="st2" d="M57.71,65.36c4.49-.87,7.41-1.3,8.76-1.3,1.89,9.88,2.99,18.36,3.28,25.44-2.64.15-5.19.58-7.65,1.27-2.93-8.65-4.39-17.12-4.39-25.4Z"/>
    <path class="st0" d="M45.51,180.58c.41-3.82,3.61-11.63,9.6-23.44,2.36,1.24,4.87,2.22,7.5,2.92-3.88,13.51-6.87,21.25-8.97,23.2-.89,0-3.6-.89-8.13-2.68Z"/>
    <path class="st2" d="M42.15,71.33c4.02-2.2,6.7-3.29,8.05-3.29s4.72,7.77,9.99,23.31c-2.39.81-4.67,1.88-6.81,3.16-7.49-13.22-11.24-20.94-11.24-23.17Z"/>
    <path class="st0" d="M31.98,171.32v-.61c6.71-8.8,11.85-15.14,15.41-19.03,1.91,1.77,4.01,3.33,6.26,4.65-7.99,12.68-12.97,19.67-14.95,20.96l-6.73-5.97Z"/>
    <path class="st2" d="M28.62,81.29c3.91-3.98,6.6-5.97,8.05-5.97,6.4,7.75,11.54,14.42,15.43,20-2.2,1.44-4.22,3.12-6.05,5-6.43-6.44-12.24-12.78-17.44-19.02Z"/>
    <path class="st0" d="M21.11,160.75v-1.3c9.15-7.49,15.89-12.54,20.2-15.14,1.37,2.2,2.97,4.23,4.76,6.08-10.86,10.89-17.59,16.34-20.19,16.34l-4.77-5.97Z"/>
    <path class="st2" d="M18.45,93.23c3.28-4.9,5.32-7.35,6.1-7.35,6.1,4.05,12.87,9.29,20.32,15.71-1.66,1.88-3.13,3.94-4.37,6.14-6.35-3.63-13.7-8.46-22.05-14.51Z"/>
    <path class="st0" d="M13.05,145.52c9.59-4.24,17.76-7.36,24.51-9.33.79,2.49,1.84,4.86,3.13,7.09-14.6,7.21-22.45,10.82-23.57,10.82-1.36-1.74-2.71-4.59-4.07-8.57Z"/>
    <path class="st2" d="M11.64,107.77c1.98-5.77,3.57-8.65,4.77-8.65,11.34,4.26,19.12,7.6,23.33,10.02-1.17,2.3-2.09,4.74-2.74,7.29-4.86-1.17-13.32-4.06-25.36-8.66Z"/>
    <path class="st2" d="M9.61,130.28c1.25-.8,10.02-1.99,26.31-3.58.1,2.67.49,5.27,1.15,7.76-5.73,1.69-14.2,3.38-25.42,5.08-1.36-2.55-2.03-5.64-2.03-9.27Z"/>
    <path class="st2" d="M9.61,123.01v-3.98c0-3.11.47-4.67,1.41-4.67,12.51,1.13,21.07,2.26,25.68,3.38-.53,2.45-.81,4.99-.81,7.6v.03c-12.49-.71-21.01-1.06-25.57-1.06l-.71-1.3Z"/>
  </g>
  <g>
    <path class="st1" d="M142.35,123.1c0-12.8,8.51-20.23,18.81-20.23,5.6,0,9.58,2.39,12.18,5.01l-4.6,5.6c-1.92-1.76-3.98-3.07-7.28-3.07-5.94,0-10.16,4.67-10.16,12.4s3.59,12.54,10.86,12.54c1.54,0,3.15-.4,4.09-1.15v-6.66h-6.39v-7.12h14.14v17.79c-2.66,2.6-7.35,4.67-12.73,4.67-10.63,0-18.9-6.78-18.9-19.78Z"/>
    <path class="st1" d="M179.67,122.88h4.36v19.29h-4.36v-19.29Z"/>
    <path class="st1" d="M188.58,122.88h6.95c4.09,0,7.45,1.42,7.45,6.01s-3.35,6.34-7.45,6.34h-2.59v6.94h-4.36v-19.29ZM195.17,131.77c2.29,0,3.53-.98,3.53-2.88s-1.23-2.54-3.53-2.54h-2.23v5.42h2.23ZM194.73,134.08l3.02-2.79,6.16,10.88h-4.88l-4.29-8.09Z"/>
    <path class="st1" d="M210.08,122.88h5.22l6.06,19.29h-4.62l-2.52-9.77c-.54-1.93-1.05-4.21-1.57-6.22h-.12c-.47,2.04-.98,4.29-1.52,6.22l-2.53,9.77h-4.46l6.06-19.29ZM208.01,134.19h9.28v3.39h-9.28v-3.39Z"/>
    <path class="st1" d="M222.2,139.74l2.5-2.99c1.37,1.19,3.15,2.02,4.74,2.02,1.82,0,2.71-.72,2.71-1.86,0-1.21-1.1-1.6-2.78-2.3l-2.51-1.07c-2-.81-3.89-2.46-3.89-5.26,0-3.2,2.86-5.75,6.87-5.75,2.22,0,4.54.88,6.21,2.53l-2.2,2.75c-1.27-.97-2.48-1.51-4-1.51s-2.46.63-2.46,1.73c0,1.18,1.26,1.61,2.95,2.28l2.46,1c2.36.95,3.83,2.52,3.83,5.25,0,3.2-2.67,5.98-7.27,5.98-2.51,0-5.18-.95-7.15-2.79Z"/>
    <path class="st1" d="M238.13,139.74l2.5-2.99c1.37,1.19,3.15,2.02,4.74,2.02,1.82,0,2.71-.72,2.71-1.86,0-1.21-1.1-1.6-2.78-2.3l-2.51-1.07c-2-.81-3.89-2.46-3.89-5.26,0-3.2,2.86-5.75,6.87-5.75,2.22,0,4.54.88,6.21,2.53l-2.2,2.75c-1.27-.97-2.48-1.51-4-1.51s-2.46.63-2.46,1.73c0,1.18,1.26,1.61,2.95,2.28l2.46,1c2.36.95,3.83,2.52,3.83,5.25,0,3.2-2.67,5.98-7.27,5.98-2.51,0-5.18-.95-7.15-2.79Z"/>
    <path class="st1" d="M254.92,132.44c0-6.3,3.56-9.92,8.76-9.92s8.76,3.64,8.76,9.92-3.56,10.09-8.76,10.09-8.76-3.78-8.76-10.09ZM267.97,132.44c0-3.87-1.66-6.15-4.29-6.15s-4.29,2.28-4.29,6.15,1.66,6.32,4.29,6.32,4.29-2.45,4.29-6.32Z"/>
    <path class="st1" d="M276.08,122.88h4.36v15.64h7.62v3.66h-11.98v-19.29Z"/>
  </g>
  <g>
    <path class="st0" d="M179.57,106.99h2.36l.21,1.7h.07c.71-1.3,1.77-1.94,2.77-1.94.56,0,.88.07,1.16.2l-.48,2.49c-.35-.09-.63-.16-1.05-.16-.74,0-1.63.47-2.15,1.8v5.65h-2.89v-9.74Z"/>
    <path class="st0" d="M195.15,113.03v-6.05h2.89v5.68c0,1.4.38,1.84,1.21,1.84.73,0,1.17-.3,1.73-1.07v-6.45h2.89v9.74h-2.36l-.21-1.35h-.07c-.81.97-1.73,1.59-3.06,1.59-2.12,0-3.02-1.5-3.02-3.93Z"/>
    <path class="st0" d="M214.26,106.99h2.36l.21.96h.07c.76-.68,1.76-1.19,2.77-1.19,2.36,0,3.8,1.95,3.8,4.95,0,3.34-1.99,5.26-4.1,5.26-.84,0-1.63-.37-2.32-1.02l.1,1.54v2.85h-2.89v-13.36ZM220.51,111.74c0-1.75-.54-2.62-1.69-2.62-.59,0-1.1.27-1.67.87v4c.52.46,1.07.62,1.55.62,1.01,0,1.81-.85,1.81-2.87Z"/>
    <path class="st0" d="M232.8,111.86c0-3.24,2.28-5.11,4.75-5.11s4.75,1.87,4.75,5.11-2.28,5.1-4.75,5.1-4.75-1.87-4.75-5.1ZM239.34,111.86c0-1.69-.59-2.78-1.79-2.78s-1.79,1.09-1.79,2.78.59,2.77,1.79,2.77,1.79-1.09,1.79-2.77Z"/>
  </g>
</svg>