<?xml version="1.0" encoding="UTF-8"?>
<svg id="Layer_1" xmlns="http://www.w3.org/2000/svg" version="1.1" viewBox="0 0 300 250">
  <!-- Generator: Adobe Illustrator 29.3.1, SVG Export Plug-In . SVG Version: 2.1.0 Build 151)  -->
  <defs>
    <style>
      .st0 {
        fill: #fff;
      }
    </style>
  </defs>
  <g>
    <rect class="st0" x="166.16" y="114.86" width="55.74" height="9.52"/>
    <rect class="st0" x="184.59" y="133.17" width="55.73" height="9.52"/>
  </g>
  <g>
    <rect class="st0" x="149.46" y="85.31" width="55.73" height="9.52" transform="translate(-11.74 151.8) rotate(-45.01)"/>
    <rect class="st0" x="175.44" y="85.22" width="55.73" height="9.52" transform="translate(-4.07 170.14) rotate(-45.01)"/>
  </g>
  <g>
    <rect class="st0" x="139.86" y="53.11" width="9.52" height="55.73"/>
    <rect class="st0" x="158.17" y="34.68" width="9.52" height="55.73"/>
  </g>
  <rect class="st0" x="110.31" y="69.81" width="9.52" height="55.73" transform="translate(-35.36 109.97) rotate(-45)"/>
  <rect class="st0" x="110.22" y="43.83" width="9.52" height="55.74" transform="translate(-17.02 102.29) rotate(-44.99)"/>
  <rect class="st0" x="78.11" y="125.62" width="55.73" height="9.52"/>
  <rect class="st0" x="59.68" y="107.31" width="55.74" height="9.52"/>
  <rect class="st0" x="94.81" y="155.17" width="55.73" height="9.52" transform="translate(-77.16 133.56) rotate(-44.99)"/>
  <rect class="st0" x="68.83" y="155.26" width="55.73" height="9.52" transform="translate(-84.82 115.21) rotate(-44.99)"/>
  <rect class="st0" x="150.62" y="141.16" width="9.52" height="55.73"/>
  <rect class="st0" x="132.31" y="159.59" width="9.52" height="55.73"/>
  <rect class="st0" x="180.17" y="124.46" width="9.52" height="55.73" transform="translate(-53.54 175.41) rotate(-45.01)"/>
  <rect class="st0" x="180.26" y="150.44" width="9.52" height="55.73" transform="translate(-71.89 183.05) rotate(-45)"/>
  <rect class="st0" x="166.16" y="114.86" width="55.74" height="9.52"/>
  <rect class="st0" x="184.59" y="133.17" width="55.73" height="9.52"/>
  <rect class="st0" x="149.46" y="85.31" width="55.73" height="9.52" transform="translate(-11.74 151.8) rotate(-45.01)"/>
  <rect class="st0" x="175.44" y="85.22" width="55.73" height="9.52" transform="translate(-4.06 170.17) rotate(-45.02)"/>
  <rect class="st0" x="139.86" y="53.11" width="9.52" height="55.73"/>
  <rect class="st0" x="158.17" y="34.68" width="9.52" height="55.73"/>
</svg>