<?xml version="1.0" encoding="UTF-8"?>
<svg id="Layer_1" xmlns="http://www.w3.org/2000/svg" version="1.1" viewBox="0 0 300 250">
  <!-- Generator: Adobe Illustrator 29.3.1, SVG Export Plug-In . SVG Version: 2.1.0 Build 151)  -->
  <defs>
    <style>
      .st0 {
        fill: #aecc3a;
      }

      .st1 {
        fill: #ee9b00;
      }

      .st2 {
        fill: #fcbd31;
      }

      .st3 {
        fill: #fff;
      }

      .st4 {
        fill: #772f1a;
      }
    </style>
  </defs>
  <g>
    <g>
      <rect class="st0" x="160.73" y="86.71" width="37" height="6.32"/>
      <rect class="st2" x="172.96" y="98.86" width="37" height="6.32"/>
    </g>
    <g>
      <rect class="st0" x="149.64" y="67.09" width="37" height="6.32" transform="translate(-.41 139.5) rotate(-45.01)"/>
      <rect class="st2" x="166.89" y="67.03" width="37" height="6.32" transform="translate(4.67 151.67) rotate(-45.01)"/>
    </g>
    <g>
      <rect class="st0" x="143.27" y="45.72" width="6.32" height="37"/>
      <rect class="st2" x="155.42" y="33.48" width="6.32" height="37"/>
    </g>
    <rect class="st4" x="123.65" y="56.8" width="6.32" height="37" transform="translate(-16.1 111.72) rotate(-45)"/>
    <rect class="st1" x="123.6" y="39.56" width="6.32" height="37" transform="translate(-3.93 106.62) rotate(-44.99)"/>
    <rect class="st4" x="102.28" y="93.85" width="37" height="6.32"/>
    <rect class="st1" x="90.05" y="81.69" width="37" height="6.32"/>
    <rect class="st4" x="113.36" y="113.47" width="37" height="6.32" transform="translate(-43.85 127.38) rotate(-44.99)"/>
    <rect class="st1" x="96.12" y="113.52" width="37" height="6.32" transform="translate(-48.94 115.2) rotate(-44.99)"/>
    <rect class="st4" x="150.41" y="104.17" width="6.32" height="37"/>
    <rect class="st1" x="138.26" y="116.4" width="6.32" height="37"/>
    <rect class="st4" x="170.03" y="93.08" width="6.32" height="37" transform="translate(-28.17 155.17) rotate(-45.01)"/>
    <rect class="st1" x="170.08" y="110.32" width="6.32" height="37" transform="translate(-40.35 160.24) rotate(-45)"/>
    <rect class="st4" x="160.73" y="86.71" width="37" height="6.32"/>
    <rect class="st1" x="172.96" y="98.86" width="37" height="6.32"/>
    <rect class="st4" x="149.64" y="67.09" width="37" height="6.32" transform="translate(-.41 139.5) rotate(-45.01)"/>
    <rect class="st1" x="166.89" y="67.03" width="37" height="6.32" transform="translate(4.69 151.7) rotate(-45.02)"/>
    <rect class="st4" x="143.27" y="45.72" width="6.32" height="37"/>
    <rect class="st1" x="155.42" y="33.48" width="6.32" height="37"/>
  </g>
  <g>
    <path class="st1" d="M37.53,191.55c0-9.43,6.27-14.9,13.86-14.9,4.13,0,7.06,1.76,8.97,3.69l-3.39,4.12c-1.41-1.3-2.93-2.26-5.37-2.26-4.38,0-7.49,3.44-7.49,9.14s2.65,9.24,8,9.24c1.14,0,2.32-.3,3.01-.85v-4.91h-4.71v-5.25h10.42v13.11c-1.96,1.92-5.41,3.44-9.38,3.44-7.83,0-13.92-5-13.92-14.58Z"/>
    <path class="st1" d="M64.92,194.79c0-7.2,5.06-11.35,10.54-11.35s10.54,4.16,10.54,11.35-5.07,11.34-10.54,11.34-10.54-4.16-10.54-11.34ZM79.43,194.79c0-3.75-1.32-6.18-3.97-6.18s-3.97,2.43-3.97,6.18,1.32,6.16,3.97,6.16,3.97-2.42,3.97-6.16Z"/>
    <path class="st1" d="M90.04,198.88v-23.84h6.41v24.1c0,1.38.63,1.81,1.16,1.81.25,0,.42,0,.79-.09l.76,4.73c-.71.3-1.76.53-3.22.53-4.4,0-5.9-2.87-5.9-7.25Z"/>
    <path class="st1" d="M101.4,194.79c0-7.08,4.42-11.35,8.98-11.35,2.39,0,3.84.89,5.31,2.26l-.23-3.28v-7.37h6.41v30.56h-5.23l-.46-2.14h-.16c-1.53,1.53-3.67,2.67-5.76,2.67-5.38,0-8.85-4.27-8.85-11.34ZM115.46,198.94v-8.89c-1.13-1.02-2.4-1.37-3.58-1.37-2.08,0-3.9,1.92-3.9,6.03s1.47,6.16,3.95,6.16c1.37,0,2.47-.52,3.53-1.94Z"/>
    <path class="st1" d="M126.26,194.79c0-7.02,5.01-11.35,10.21-11.35,6.16,0,9.22,4.48,9.22,10.39,0,1.15-.14,2.31-.27,2.83h-12.95c.57,3.14,2.72,4.58,5.61,4.58,1.64,0,3.11-.5,4.68-1.42l2.12,3.87c-2.22,1.54-5.11,2.44-7.68,2.44-6.17,0-10.95-4.17-10.95-11.34ZM140.21,192.42c0-2.38-1.04-4.09-3.6-4.09-2.03,0-3.78,1.36-4.21,4.09h7.81Z"/>
    <path class="st1" d="M150.12,183.96h5.23l.46,2.74h.16c1.82-1.75,4-3.26,6.96-3.26,4.71,0,6.71,3.32,6.71,8.73v13.44h-6.41v-12.62c0-3.11-.84-4.09-2.69-4.09-1.61,0-2.6.75-4.01,2.1v14.6h-6.41v-21.64Z"/>
    <path class="st1" d="M175.61,177.17h10.24c6.03,0,10.97,2.09,10.97,8.85s-4.94,9.35-10.97,9.35h-3.81v10.23h-6.43v-28.43ZM185.32,190.27c3.38,0,5.2-1.45,5.2-4.24s-1.82-3.75-5.2-3.75h-3.29v7.99h3.29ZM184.67,193.68l4.45-4.11,9.07,16.04h-7.19l-6.33-11.93Z"/>
    <path class="st1" d="M200.12,194.79c0-7.2,5.06-11.35,10.54-11.35s10.54,4.16,10.54,11.35-5.07,11.34-10.54,11.34-10.54-4.16-10.54-11.34ZM214.64,194.79c0-3.75-1.32-6.18-3.97-6.18s-3.97,2.43-3.97,6.18,1.32,6.16,3.97,6.16,3.97-2.42,3.97-6.16Z"/>
    <path class="st1" d="M223.46,203.1l2.89-3.99c1.96,1.48,3.77,2.27,5.58,2.27,1.91,0,2.73-.73,2.73-1.86,0-1.43-2.14-2.07-4.37-2.95-2.65-1.03-5.73-2.79-5.73-6.36,0-4.03,3.28-6.78,8.27-6.78,3.32,0,5.79,1.34,7.63,2.74l-2.87,3.85c-1.54-1.12-3.06-1.85-4.56-1.85-1.66,0-2.47.65-2.47,1.73,0,1.38,2.03,1.91,4.27,2.72,2.74,1.01,5.83,2.56,5.83,6.51s-3.09,6.98-8.89,6.98c-2.85,0-6.12-1.24-8.31-3.02Z"/>
    <path class="st1" d="M243.45,194.79c0-7.02,5.01-11.35,10.21-11.35,6.17,0,9.22,4.48,9.22,10.39,0,1.15-.14,2.31-.27,2.83h-12.95c.58,3.14,2.73,4.58,5.61,4.58,1.64,0,3.11-.5,4.68-1.42l2.12,3.87c-2.22,1.54-5.11,2.44-7.68,2.44-6.17,0-10.95-4.17-10.95-11.34ZM257.4,192.42c0-2.38-1.04-4.09-3.6-4.09-2.03,0-3.78,1.36-4.21,4.09h7.81Z"/>
  </g>
  <g>
    <path class="st3" d="M80.14,159.82h3.38c2.35,0,3.89.86,3.89,3.12s-1.54,3.27-3.89,3.27h-2.55v5.43h-.83v-11.83ZM83.3,165.52c2.09,0,3.26-.83,3.26-2.58s-1.16-2.43-3.26-2.43h-2.34v5h2.34ZM83.33,165.97l.79-.24,3.51,5.91h-.96l-3.34-5.67Z"/>
    <path class="st3" d="M96.09,167.35c0-2.81,1.83-4.54,3.76-4.54,2.04,0,3.3,1.45,3.3,3.99,0,.21,0,.43-.04.65h-6.2c.03,2.17,1.3,3.73,3.24,3.73.93,0,1.67-.31,2.32-.76l.33.6c-.68.42-1.45.85-2.72.85-2.2,0-3.98-1.69-3.98-4.51ZM102.4,166.79c0-2.2-1-3.29-2.54-3.29-1.46,0-2.78,1.23-2.96,3.29h5.5Z"/>
    <path class="st3" d="M111.59,170.67l.46-.58c.73.61,1.51,1.09,2.74,1.09,1.36,0,2.06-.79,2.06-1.7,0-1.08-1.12-1.55-2.11-1.91-1.3-.46-2.75-.99-2.75-2.46,0-1.24.98-2.29,2.78-2.29.92,0,1.83.38,2.46.89l-.43.57c-.58-.43-1.19-.79-2.06-.79-1.34,0-1.95.77-1.95,1.57,0,.98,1.02,1.36,2.04,1.74,1.34.51,2.81.95,2.81,2.63,0,1.3-1.04,2.43-2.9,2.43-1.28,0-2.39-.53-3.16-1.19Z"/>
    <path class="st3" d="M126.8,160.24c0-.45.33-.7.72-.7s.72.26.72.7c0,.41-.33.7-.72.7s-.72-.29-.72-.7ZM127.11,163.03h.79v8.62h-.79v-8.62Z"/>
    <path class="st3" d="M137.68,167.35c0-2.78,1.77-4.54,3.82-4.54,1.03,0,1.74.39,2.6,1.06l-.04-1.58v-3.55h.79v12.91h-.67l-.09-1.12h-.04c-.71.71-1.67,1.33-2.81,1.33-2.16,0-3.56-1.6-3.56-4.51ZM144.06,169.74v-5.11c-.91-.81-1.67-1.11-2.51-1.11-1.71,0-3.03,1.67-3.03,3.83,0,2.29,1.02,3.81,2.85,3.81.95,0,1.79-.5,2.7-1.42Z"/>
    <path class="st3" d="M154.62,167.35c0-2.81,1.83-4.54,3.76-4.54,2.04,0,3.3,1.45,3.3,3.99,0,.21,0,.43-.04.65h-6.2c.03,2.17,1.3,3.73,3.24,3.73.93,0,1.67-.31,2.31-.76l.33.6c-.68.42-1.45.85-2.72.85-2.2,0-3.98-1.69-3.98-4.51ZM160.93,166.79c0-2.2-1-3.29-2.54-3.29-1.46,0-2.77,1.23-2.95,3.29h5.5Z"/>
    <path class="st3" d="M171.19,163.03h.67l.09,1.33h.04c.88-.88,1.78-1.55,2.96-1.55,1.78,0,2.61,1.08,2.61,3.3v5.53h-.79v-5.42c0-1.83-.58-2.7-1.96-2.7-1.03,0-1.77.54-2.82,1.62v6.5h-.79v-8.62Z"/>
    <path class="st3" d="M187.19,167.35c0-2.88,1.84-4.54,3.94-4.54,1.17,0,1.94.52,2.52,1.06l-.47.55c-.56-.52-1.2-.92-2.04-.92-1.76,0-3.12,1.57-3.12,3.84s1.24,3.81,3.11,3.81c.92,0,1.71-.45,2.31-.99l.41.56c-.74.66-1.66,1.14-2.75,1.14-2.23,0-3.91-1.66-3.91-4.51Z"/>
    <path class="st3" d="M202.85,160.24c0-.45.33-.7.72-.7s.72.26.72.7c0,.41-.33.7-.72.7s-.72-.29-.72-.7ZM203.16,163.03h.79v8.62h-.79v-8.62Z"/>
    <path class="st3" d="M213.83,169.5c0-1.91,1.73-2.83,5.56-3.25.03-1.32-.34-2.74-2.03-2.74-1.16,0-2.17.57-2.75,1.01l-.37-.59c.61-.43,1.8-1.12,3.21-1.12,2.04,0,2.73,1.48,2.73,3.33v5.5h-.67l-.09-1.12h-.04c-.88.71-1.93,1.33-3.06,1.33-1.37,0-2.5-.74-2.5-2.36ZM219.39,169.79v-2.93c-3.54.41-4.75,1.23-4.75,2.61,0,1.24.84,1.71,1.83,1.71s1.86-.48,2.92-1.39Z"/>
  </g>
</svg>